<svg width="813" height="730" viewBox="0 0 813 730" fill="none" xmlns="http://www.w3.org/2000/svg">
<g clip-path="url(#clip0_201_2)">
<path d="M202.98 373.61C217.209 373.612 231.12 369.394 242.952 361.49C254.784 353.586 264.006 342.351 269.452 329.205C274.898 316.059 276.324 301.594 273.548 287.638C270.773 273.682 263.921 260.862 253.859 250.801C243.798 240.739 230.978 233.887 217.022 231.112C203.066 228.336 188.601 229.762 175.455 235.208C162.309 240.654 151.074 249.877 143.17 261.709C135.266 273.541 131.048 287.451 131.05 301.68C131.053 320.756 138.632 339.05 152.121 352.539C165.61 366.028 183.904 373.607 202.98 373.61Z" fill="#80321D"/>
<path d="M608.53 373.62C648.261 373.62 680.47 341.411 680.47 301.68C680.47 261.949 648.261 229.74 608.53 229.74C568.799 229.74 536.59 261.949 536.59 301.68C536.59 341.411 568.799 373.62 608.53 373.62Z" fill="#80321D"/>
<path d="M0.210007 301.68C0.210007 413.68 90.99 504.45 202.98 504.45C254.101 504.521 303.348 485.206 340.79 450.4L405.79 521.13L470.79 450.44C508.23 485.218 557.46 504.514 608.56 504.44C720.56 504.44 811.42 413.65 811.42 301.67C811.449 273.457 805.576 245.549 794.179 219.741C782.782 193.932 766.112 170.793 745.24 151.81L811.59 79.62H664.5C588.272 27.7487 498.202 0.0100098 406 0.0100098C313.798 0.0100098 223.728 27.7487 147.5 79.62H0L66.35 151.81C45.4839 170.797 28.8203 193.94 17.4298 219.75C6.03927 245.56 0.173741 273.468 0.210007 301.68ZM745.76 301.68C745.76 328.822 737.712 355.354 722.633 377.921C707.554 400.488 686.121 418.077 661.046 428.464C635.97 438.851 608.378 441.568 581.758 436.273C555.138 430.978 530.686 417.908 511.494 398.716C492.302 379.524 479.232 355.072 473.937 328.452C468.642 301.832 471.359 274.24 481.746 249.164C492.133 224.089 509.722 202.656 532.289 187.577C554.856 172.498 581.388 164.45 608.53 164.45C644.926 164.45 679.831 178.908 705.566 204.644C731.302 230.379 745.76 265.284 745.76 301.68ZM405.76 66.35C458.062 66.285 509.853 76.6398 558.11 96.81C471.5 129.95 405.83 207.43 405.83 297.72C405.83 207.42 340.14 129.93 253.52 96.8C301.742 76.6455 353.495 66.2943 405.76 66.35ZM202.98 164.45C230.122 164.45 256.654 172.498 279.221 187.577C301.788 202.656 319.377 224.089 329.764 249.164C340.151 274.24 342.868 301.832 337.573 328.452C332.278 355.072 319.208 379.524 300.016 398.716C280.824 417.908 256.372 430.978 229.752 436.273C203.132 441.568 175.54 438.851 150.464 428.464C125.389 418.077 103.956 400.488 88.8774 377.921C73.7984 355.354 65.75 328.822 65.75 301.68C65.75 265.284 80.2081 230.379 105.944 204.644C131.679 178.908 166.584 164.45 202.98 164.45Z" fill="#80321D"/>
<path d="M804.53 689.38C802.89 689.38 801.288 689.866 799.924 690.777C798.561 691.688 797.498 692.983 796.871 694.498C796.244 696.012 796.079 697.679 796.399 699.287C796.719 700.895 797.509 702.373 798.668 703.532C799.827 704.691 801.305 705.481 802.913 705.801C804.521 706.121 806.188 705.956 807.702 705.329C809.217 704.701 810.512 703.639 811.423 702.276C812.334 700.912 812.82 699.31 812.82 697.67C812.817 695.472 811.943 693.365 810.389 691.811C808.835 690.257 806.728 689.383 804.53 689.38ZM804.53 704.66C803.145 704.66 801.792 704.249 800.641 703.48C799.49 702.711 798.593 701.618 798.063 700.339C797.533 699.06 797.394 697.652 797.664 696.294C797.935 694.937 798.601 693.689 799.58 692.71C800.559 691.731 801.806 691.065 803.164 690.794C804.522 690.524 805.93 690.663 807.209 691.193C808.488 691.723 809.581 692.62 810.35 693.771C811.119 694.922 811.53 696.276 811.53 697.66C811.53 699.516 810.792 701.297 809.48 702.61C808.167 703.922 806.386 704.66 804.53 704.66Z" fill="#80321D"/>
<path d="M807.22 696.26C807.228 695.922 807.163 695.586 807.03 695.275C806.897 694.963 806.699 694.685 806.448 694.457C806.198 694.229 805.901 694.058 805.579 693.955C805.257 693.852 804.916 693.82 804.58 693.86H801.93V701.4H803.23V698.66H804.64L806.01 701.4H807.42L805.91 698.4C806.322 698.222 806.669 697.92 806.904 697.537C807.138 697.154 807.249 696.708 807.22 696.26ZM804.52 697.51H803.23V695.01H804.52C805.39 695.01 805.92 695.45 805.92 696.26C805.92 697.07 805.39 697.51 804.52 697.51Z" fill="#80321D"/>
<path d="M94.9801 633.98V619.7H73.1101V704.7H95.0101V653.72C95.0101 644.49 100.93 639.96 110.16 639.96H122.16V619.7H111.87C103.86 619.7 96.8901 623.88 94.9801 633.98Z" fill="#80321D"/>
<path d="M142.62 586.11C139.986 586.092 137.405 586.856 135.205 588.305C133.005 589.754 131.283 591.822 130.259 594.249C129.234 596.676 128.952 599.353 129.449 601.94C129.945 604.527 131.198 606.909 133.048 608.784C134.898 610.66 137.263 611.944 139.843 612.476C142.424 613.007 145.103 612.762 147.544 611.77C149.985 610.778 152.077 609.085 153.555 606.905C155.033 604.724 155.832 602.154 155.85 599.52C155.885 597.765 155.568 596.02 154.917 594.389C154.267 592.758 153.297 591.274 152.064 590.024C150.83 588.774 149.36 587.784 147.738 587.112C146.116 586.44 144.376 586.099 142.62 586.11Z" fill="#80321D"/>
<path d="M153.54 619.7H131.7V704.65H153.54V619.7Z" fill="#80321D"/>
<path d="M213.68 618.27C204.371 618.223 195.308 621.253 187.9 626.89V619.7H166.11V729.59H187.95V697.47C195.344 703.099 204.387 706.136 213.68 706.11C225.326 706.11 236.494 701.484 244.729 693.249C252.964 685.014 257.59 673.846 257.59 662.2C257.59 650.554 252.964 639.386 244.729 631.151C236.494 622.916 225.326 618.29 213.68 618.29V618.27ZM211.75 686.03C207.031 686.03 202.417 684.63 198.493 682.008C194.569 679.386 191.511 675.659 189.705 671.299C187.9 666.938 187.428 662.14 188.349 657.511C189.271 652.883 191.544 648.631 194.882 645.295C198.22 641.958 202.472 639.687 207.101 638.767C211.73 637.848 216.528 638.322 220.888 640.129C225.248 641.937 228.973 644.996 231.594 648.921C234.214 652.846 235.612 657.461 235.61 662.18C235.61 665.313 234.993 668.415 233.794 671.309C232.594 674.204 230.837 676.833 228.621 679.048C226.405 681.263 223.775 683.019 220.88 684.217C217.985 685.415 214.883 686.031 211.75 686.03Z" fill="#80321D"/>
<path d="M637.25 654.73L624.51 651.23C616.13 649.05 612.86 646.47 612.86 642.04C612.86 637.61 617.45 634.71 624.02 634.71C630.28 634.71 635.18 638.81 635.18 644.04V644.53H655.31V644.04C655.31 628.62 642.74 618.27 624.02 618.27C605.48 618.27 592.02 628.62 592.02 642.88C592.02 653.97 599.38 662.33 612.2 665.8L624.41 669.11C633.68 671.68 637.12 674.53 637.12 679.63C637.12 685.01 632.12 688.63 624.73 688.63C616.99 688.63 611.8 683.74 611.8 676.47V675.98H590.43V676.47C590.43 693.9 604.43 706.07 624.55 706.07C643.91 706.07 657.96 694.18 657.96 677.8C657.96 669.8 654.37 659.29 637.25 654.73Z" fill="#80321D"/>
<path d="M335.11 626.89C327.702 621.253 318.639 618.223 309.33 618.27C297.684 618.27 286.516 622.896 278.281 631.131C270.046 639.366 265.42 650.534 265.42 662.18C265.42 673.826 270.046 684.994 278.281 693.229C286.516 701.464 297.684 706.09 309.33 706.09C318.638 706.133 327.7 703.103 335.11 697.47V704.66H356.95V619.66H335.11V626.89ZM335.11 662.18C335.11 666.899 333.71 671.513 331.088 675.437C328.466 679.361 324.739 682.419 320.378 684.225C316.018 686.03 311.22 686.502 306.591 685.581C301.963 684.659 297.711 682.386 294.375 679.048C291.038 675.71 288.767 671.458 287.847 666.829C286.928 662.2 287.402 657.402 289.209 653.042C291.016 648.683 294.076 644.957 298.001 642.336C301.926 639.716 306.54 638.318 311.26 638.32C314.393 638.32 317.495 638.937 320.389 640.136C323.283 641.336 325.913 643.093 328.128 645.309C330.343 647.525 332.099 650.155 333.297 653.05C334.495 655.945 335.111 659.047 335.11 662.18Z" fill="#80321D"/>
<path d="M435.79 626.89C428.385 621.255 419.325 618.224 410.02 618.27C398.374 618.27 387.206 622.896 378.971 631.131C370.736 639.366 366.11 650.534 366.11 662.18C366.11 673.826 370.736 684.994 378.971 693.229C387.206 701.464 398.374 706.09 410.02 706.09C419.324 706.131 428.382 703.101 435.79 697.47V704.66H457.63V589.46H435.79V626.89ZM411.94 686.03C407.22 686.032 402.605 684.634 398.68 682.013C394.755 679.392 391.695 675.666 389.888 671.305C388.081 666.945 387.608 662.147 388.528 657.518C389.448 652.888 391.721 648.636 395.058 645.298C398.396 641.961 402.648 639.688 407.277 638.768C411.907 637.848 416.705 638.321 421.065 640.128C425.426 641.935 429.152 644.995 431.773 648.92C434.394 652.846 435.792 657.46 435.79 662.18C435.79 668.505 433.277 674.572 428.804 679.044C424.332 683.517 418.265 686.03 411.94 686.03Z" fill="#80321D"/>
<path d="M580.9 619.7H559.06V704.65H580.9V619.7Z" fill="#80321D"/>
<path d="M569.98 586.11C567.346 586.092 564.765 586.856 562.565 588.305C560.365 589.754 558.643 591.822 557.619 594.249C556.594 596.676 556.313 599.353 556.809 601.94C557.305 604.527 558.558 606.909 560.408 608.784C562.258 610.66 564.623 611.944 567.203 612.476C569.784 613.007 572.464 612.762 574.904 611.77C577.345 610.778 579.437 609.085 580.915 606.905C582.394 604.724 583.192 602.154 583.21 599.52C583.245 597.765 582.928 596.02 582.277 594.389C581.627 592.758 580.657 591.274 579.424 590.024C578.191 588.774 576.72 587.784 575.098 587.112C573.476 586.44 571.736 586.099 569.98 586.11Z" fill="#80321D"/>
<path d="M708.47 618.27C699.786 618.27 691.296 620.845 684.075 625.67C676.854 630.495 671.226 637.353 667.903 645.376C664.579 653.4 663.71 662.229 665.404 670.746C667.098 679.264 671.28 687.088 677.421 693.229C683.562 699.37 691.386 703.552 699.904 705.246C708.421 706.941 717.25 706.071 725.274 702.748C733.297 699.424 740.155 693.796 744.98 686.575C749.805 679.354 752.38 670.865 752.38 662.18C752.38 650.534 747.754 639.366 739.519 631.131C731.284 622.896 720.116 618.27 708.47 618.27ZM708.47 686.03C703.75 686.032 699.136 684.634 695.21 682.013C691.285 679.392 688.225 675.666 686.418 671.305C684.611 666.945 684.138 662.147 685.058 657.518C685.978 652.888 688.251 648.636 691.589 645.298C694.926 641.961 699.178 639.688 703.808 638.768C708.437 637.848 713.235 638.321 717.596 640.128C721.956 641.935 725.682 644.995 728.303 648.92C730.924 652.846 732.322 657.46 732.32 662.18C732.32 668.505 729.807 674.572 725.335 679.045C720.862 683.517 714.795 686.03 708.47 686.03Z" fill="#80321D"/>
<path d="M83.79 589.46H0V608.95H31.02V704.66H52.78V608.95H83.79V589.46Z" fill="#80321D"/>
<path d="M507.55 681.39L488.13 619.7H465.18L494.32 704.66H520.61L549.92 619.7H526.98L507.55 681.39Z" fill="#80321D"/>
<path d="M811.51 639.96V619.7H801.28C793.28 619.7 786.28 623.88 784.39 633.98V619.7H762.5V704.7H784.39V653.72C784.39 644.49 790.31 639.96 799.54 639.96H811.51Z" fill="#80321D"/>
</g>
<defs>
<clipPath id="clip0_201_2">
<rect width="812.82" height="729.6" fill="white"/>
</clipPath>
</defs>
</svg>
